General
Complete name                            : Twink and man have sex.mp4
Format                                   : MPEG-4
Format profile                           : Base Media
Codec ID                                 : isom
File size                                : 40.2 MiB
Duration                                 : 9mn 15s
Overall bit rate mode                    : Variable
Overall bit rate                         : 606 Kbps
Writing application                      : Lavf52.31.0

Video
ID                                       : 1
Format                                   : AVC
Format/Info                              : Advanced Video Codec
Format profile                           : High@L3.0
Format settings, CABAC                   : Yes
Format settings, ReFrames                : 4 frames
Codec ID                                 : avc1
Codec ID/Info                            : Advanced Video Coding
Duration                                 : 9mn 15s
Bit rate                                 : 537 Kbps
Width                                    : 528 pixels
Height                                   : 400 pixels
Display aspect ratio                     : 4:3
Frame rate mode                          : Constant
Frame rate                               : 20.000 fps
Original frame rate                      : 25.000 fps
Color space                              : YUV
Chroma subsampling                       : 4:2:0
Bit depth                                : 8 bits
Scan type                                : Progressive
Bits/(Pixel*Frame)                       : 0.127
Stream size                              : 35.6 MiB (89%)
Writing library                          : x264 core 68
Encoding settings                        : cabac=1 / ref=4 / deblock=1:0:0 / analyse=0x3:0x113 / me=umh / subme=8 / psy_rd=1.0:0.0 / mixed_ref=1 / me_range=16 / chroma_me=1 / trellis=1 / 8x8dct=1 / cqm=0 / deadzone=21,11 / chroma_qp_offset=-2 / threads=12 / nr=0 / decimate=1 / mbaff=0 / bframes=16 / b_pyramid=0 / b_adapt=2 / b_bias=0 / direct=3 / wpredb=1 / keyint=250 / keyint_min=25 / scenecut=40 / rc=crf / crf=25.0 / qcomp=0.60 / qpmin=10 / qpmax=51 / qpstep=4 / ip_ratio=1.41 / pb_ratio=1.25 / aq=1:1.00

Audio
ID                                       : 2
Format                                   : AAC
Format/Info                              : Advanced Audio Codec
Format profile                           : LC
Codec ID                                 : 40
Duration                                 : 9mn 15s
Bit rate mode                            : Variable
Bit rate                                 : 66.2 Kbps
Channel(s)                               : 2 channels
Channel positions                        : Front: L R
Sampling rate                            : 22.05 KHz
Compression mode                         : Lossy
Delay relative to video                  : 50ms
Stream size                              : 4.35 MiB (11%)


FULL size pic: http://bayimg.com/OaIIlAaeA

More: https://thepiratebay.se/user/GaySubsGR

You can add me on Skype if you want @ GaySubsGR

** GREEK **
Kali proboli kai min 3exnate SEED! :)

Kali xronia se olus. Elpizw na exete ena uperoxo 2013! ;)